<svg width="20" height="20" viewBox="0 0 20 20" fill="none" xmlns="http://www.w3.org/2000/svg">
<path d="M18.666 4.62436C18.028 4.9077 17.3427 5.09836 16.6234 5.18436C17.358 4.74436 17.9214 4.0477 18.1867 3.21703C17.5 3.62436 16.7387 3.92036 15.928 4.08036C15.2794 3.38903 14.3554 2.95703 13.3327 2.95703C11.3687 2.95703 9.7767 4.5497 9.7767 6.51303C9.7767 6.7917 9.8087 7.0637 9.8687 7.32303C6.91337 7.17503 4.29337 5.75903 2.5387 3.60703C2.23336 4.13236 2.05803 4.74303 2.05803 5.3957C2.05803 6.62903 2.68536 7.7177 3.63936 8.35503C3.0567 8.33637 2.50803 8.17637 2.0287 7.91037C2.0287 7.9257 2.0287 7.9397 2.0287 7.95503C2.0287 9.67837 3.25403 11.1157 4.88136 11.4417C4.58336 11.523 4.2687 11.5664 3.94403 11.5664C3.71536 11.5664 3.49203 11.5437 3.27536 11.503C3.72803 12.9157 5.04137 13.9444 6.59737 13.973C5.3807 14.927 3.84736 15.4957 2.1807 15.4957C1.89403 15.4957 1.6107 15.479 1.33203 15.4457C2.90603 16.4544 4.7747 17.043 6.78337 17.043C13.3247 17.043 16.9007 11.6244 16.9007 6.92503C16.9007 6.77103 16.8974 6.6177 16.8907 6.46503C17.586 5.96303 18.1894 5.33703 18.666 4.62436Z" fill="#FFFDFD"/>
</svg>
