<svg width="1280" height="151" viewBox="0 0 1280 151" fill="none" xmlns="http://www.w3.org/2000/svg">
<path d="M1280 151L1244.44 140.331C1208.89 130.062 1137.78 108.126 1066.67 92.4723C995.556 76.2201 924.444 66.2495 853.333 71.2348C782.222 76.2202 711.111 98.1556 640 108.425C568.889 119.094 497.778 119.094 426.667 92.4723C355.556 66.2495 284.444 12.408 213.333 2.13826C142.222 -8.53033 71.1111 23.3757 35.5555 39.3288L-9.53674e-06 55.2818V151H35.5555C71.1111 151 142.222 151 213.333 151C284.444 151 355.556 151 426.667 151C497.778 151 568.889 151 640 151C711.111 151 782.222 151 853.333 151C924.444 151 995.556 151 1066.67 151C1137.78 151 1208.89 151 1244.44 151H1280Z" fill="#0F5860"/>
</svg>
