<svg width="1280" height="298" viewBox="0 0 1280 298" fill="none" xmlns="http://www.w3.org/2000/svg">
<g clip-path="url(#clip0)">
<path d="M0 29.7998L42.6667 69.5642C85.3333 108.956 170.667 189.044 256 223.5C341.333 257.956 426.667 248.644 512 228.435C597.333 208.6 682.667 178.8 768 163.9C853.333 149 938.667 149 1024 173.864C1109.33 198.356 1194.67 248.644 1237.33 273.135L1280 298H1237.33C1194.67 298 1109.33 298 1024 298C938.667 298 853.333 298 768 298C682.667 298 597.333 298 512 298C426.667 298 341.333 298 256 298C170.667 298 85.3333 298 42.6667 298H0L0 29.7998Z" fill="#0F5860"/>
</g>
<defs>
<clipPath id="clip0">
<rect width="1280" height="298" fill="white"/>
</clipPath>
</defs>
</svg>
