<svg width="1280" height="151" viewBox="0 0 1280 151" fill="none" xmlns="http://www.w3.org/2000/svg">
<path d="M1280 -3.97129e-06L1244.44 10.6686C1208.89 20.9384 1137.78 42.8738 1066.67 58.5277C995.556 74.7799 924.444 84.7505 853.333 79.7652C782.222 74.7798 711.111 52.8444 640 42.5747C568.889 31.9061 497.778 31.9061 426.667 58.5277C355.556 84.7505 284.444 138.592 213.333 148.862C142.222 159.53 71.1111 127.624 35.5555 111.671L-9.53674e-06 95.7182V-3.97129e-06H35.5555C71.1111 -3.97129e-06 142.222 -3.97129e-06 213.333 -3.97129e-06C284.444 -3.97129e-06 355.556 -3.97129e-06 426.667 -3.97129e-06C497.778 -3.97129e-06 568.889 -3.97129e-06 640 -3.97129e-06C711.111 -3.97129e-06 782.222 -3.97129e-06 853.333 -3.97129e-06C924.444 -3.97129e-06 995.556 -3.97129e-06 1066.67 -3.97129e-06C1137.78 -3.97129e-06 1208.89 -3.97129e-06 1244.44 -3.97129e-06H1280Z" fill="#0F5860"/>
</svg>
